# xmcd
#
# Track frame offsets:
#	150
#	42418
#	78098
#	114513
#	161468
#	194859
#	226133
#
# Disc length: 3280 seconds
#
# Revision: 0
# Processed by: cddbd v1.5.2PL0 Copyright (c) Steve Scherf et al.
# Submitted via: EasyCDDAExtractor 10.0.3.1
#
DISCID=510cce07
DTITLE=Mike Bloomfield and Nick Gravenites - Live at the Pipeline Tavern in Se
DTITLE=attle [CD1]
DYEAR=1976
DGENRE=Blues
TTITLE0=Thinking Bout My Family
TTITLE1=Buried Aline In The Blues
TTITLE2=Don't Come To My Party
TTITLE3=Blue Highway
TTITLE4=Small Walk-In Box
TTITLE5=Women Lovin Each Other
TTITLE6=One Of These Days
EXTD=
EXTT0=
EXTT1=
EXTT2=
EXTT3=
EXTT4=
EXTT5=
EXTT6=
PLAYORDER=
